<svg xmlns="http://www.w3.org/2000/svg" viewBox="0 0 720 200" width="720" height="200">
  <defs>
    <linearGradient id="bg" x1="0" y1="0" x2="1" y2="1">
      <stop offset="0%" stop-color="#0f172a"/>
      <stop offset="50%" stop-color="#1e3a5f"/>
      <stop offset="100%" stop-color="#0f172a"/>
    </linearGradient>
    <radialGradient id="glow" cx="15%" cy="40%" r="40%">
      <stop offset="0%" stop-color="#0570de" stop-opacity="0.18"/>
      <stop offset="100%" stop-color="#0570de" stop-opacity="0"/>
    </radialGradient>
  </defs>

  <rect width="720" height="200" fill="url(#bg)"/>
  <rect width="720" height="200" fill="url(#glow)"/>

  <!-- Nested SVG clips to its viewport (GitHub's README sanitizer often breaks clip-path url(#id)) -->
  <svg x="36" y="52" width="56" height="56" viewBox="0 0 150 150" preserveAspectRatio="xMidYMid meet" overflow="hidden">
    <rect width="150" height="150" rx="27" fill="#1F8BF0"/>
    <path d="M0 0 C4.227932 3.27768018 7.02340033 7.10930067 9.3984375 11.859375 C10.16584406 20.62551917 9.22831056 27.60933229 3.6484375 34.546875 C-2.91501794 41.58941477 -10.448666 44.95271192 -19.6015625 47.859375 C-20.5915625 47.859375 -21.5815625 47.859375 -22.6015625 47.859375 C-19.56332567 58.24829048 -19.56332567 58.24829048 -12.6015625 65.859375 C-7.25199301 66.94224633 -2.91603616 66.43182457 1.7734375 63.609375 C4.03729603 62.02149827 5.69751942 60.53465749 7.5859375 58.484375 C8.1840625 57.948125 8.7821875 57.411875 9.3984375 56.859375 C12.1484375 57.109375 12.1484375 57.109375 14.3984375 57.859375 C14.48239472 61.21766377 13.88191303 63.28391572 11.71484375 65.86328125 C5.4809551 71.71935847 -2.12368963 76.90183386 -10.9140625 77.421875 C-17.16199787 76.46880011 -21.15508419 72.94215434 -25.078125 68.19921875 C-28.22060938 63.37268505 -32.6015625 55.68101598 -32.6015625 49.859375 C-33.2615625 49.859375 -33.9215625 49.859375 -34.6015625 49.859375 C-34.73691406 50.49101563 -34.87226562 51.12265625 -35.01171875 51.7734375 C-37.00014423 60.03671464 -40.22571447 70.86475616 -46.6640625 76.7421875 C-49.19381004 78.20087258 -50.72729004 78.30157076 -53.6015625 77.859375 C-55.4140625 76.734375 -55.4140625 76.734375 -56.6015625 74.859375 C-57.35437207 69.05573847 -55.1450545 65.32775599 -52.4140625 60.421875 C-51.9720752 59.60928223 -51.53008789 58.79668945 -51.07470703 57.95947266 C-50.11058428 56.19529776 -49.13992739 54.43468179 -48.16357422 52.67724609 C-46.53179398 49.7335125 -44.92785718 46.77555161 -43.32421875 43.81640625 C-42.20991915 41.78819045 -41.0940586 39.76083137 -39.9765625 37.734375 C-39.46327393 36.78763916 -38.94998535 35.84090332 -38.42114258 34.86547852 C-31.23877257 22.02612737 -31.23877257 22.02612737 -25.6015625 17.859375 C-22.85693359 18.12451172 -22.85693359 18.12451172 -20.6015625 18.859375 C-20.90960027 26.71433812 -24.13246734 32.89996697 -27.6015625 39.859375 C-19.08816065 38.15669463 -12.09829288 35.60720107 -7.1015625 28.171875 C-4.15607278 23.30363504 -2.82627796 19.65247334 -3.6015625 13.859375 C-5.27771322 10.50707356 -6.43999953 8.46712134 -9.7890625 6.71484375 C-16.48880892 4.67700421 -25.54791743 4.79937685 -32.2265625 7.046875 C-38.66462291 10.50435189 -42.04118755 15.72241249 -46.05078125 21.65234375 C-47.6015625 23.859375 -47.6015625 23.859375 -49.6015625 25.859375 C-52.6015625 26.109375 -52.6015625 26.109375 -55.6015625 25.859375 C-57.6015625 23.859375 -57.6015625 23.859375 -57.9765625 20.109375 C-57.77523716 13.90184356 -54.32873182 10.38474254 -49.9765625 6.296875 C-36.62557281 -4.94082955 -15.52890033 -9.13464725 0 0 Z" fill="#F8FBFE" transform="translate(74.6015625,37.140625)"/>
    <path d="M0 0 C1.2065625 0.0309375 1.2065625 0.0309375 2.4375 0.0625 C5.59007999 6.01737332 8.044122 12.08531041 10.38671875 18.40234375 C11.18701902 20.94464516 11.18701902 20.94464516 12.4375 22.0625 C12.67460693 21.43158447 12.91171387 20.80066895 13.15600586 20.15063477 C14.22620612 17.30769405 15.30054543 14.46633542 16.375 11.625 C16.93477539 10.13516602 16.93477539 10.13516602 17.50585938 8.61523438 C17.86357422 7.67099609 18.22128906 6.72675781 18.58984375 5.75390625 C19.0847229 4.44208374 19.0847229 4.44208374 19.58959961 3.10375977 C20.4375 1.0625 20.4375 1.0625 21.4375 0.0625 C23.10367115 0.02186168 24.77138095 0.019779 26.4375 0.0625 C26.70547897 4.78237351 25.93551708 7.97641228 24.06640625 12.30078125 C23.32874023 14.02458008 23.32874023 14.02458008 22.57617188 15.78320312 C22.05603516 16.96849609 21.53589844 18.15378906 21 19.375 C20.48373047 20.57962891 19.96746094 21.78425781 19.43554688 23.02539062 C15.61125837 31.88874163 15.61125837 31.88874163 14.4375 33.0625 C12.77132885 33.10313832 11.10361905 33.105221 9.4375 33.0625 C6.22580363 26.13892503 3.20020318 19.17761825 0.4375 12.0625 C-1.65716618 14.15716618 -2.23099719 15.43190186 -3.25390625 18.16015625 C-3.55876953 18.96130859 -3.86363281 19.76246094 -4.17773438 20.58789062 C-4.49033203 21.42513672 -4.80292969 22.26238281 -5.125 23.125 C-5.74897601 24.78342912 -6.37516212 26.44102894 -7.00390625 28.09765625 C-7.27920166 28.8337915 -7.55449707 29.56992676 -7.83813477 30.32836914 C-8.5625 32.0625 -8.5625 32.0625 -9.5625 33.0625 C-11.22867115 33.10313832 -12.89638095 33.105221 -14.5625 33.0625 C-16.25339267 29.74086498 -17.91327366 26.40499731 -19.5625 23.0625 C-19.90410156 22.39863281 -20.24570313 21.73476562 -20.59765625 21.05078125 C-22.54877705 17.01241495 -22.92765753 14.3529951 -21.5625 10.0625 C-20.5725 9.0725 -19.5825 8.0825 -18.5625 7.0625 C-16.5825 12.0125 -14.6025 16.9625 -12.5625 22.0625 C-10.89738748 19.56483122 -9.91319406 17.62688538 -8.87109375 14.8671875 C-8.56623047 14.06925781 -8.26136719 13.27132812 -7.94726562 12.44921875 C-7.63466797 11.62035156 -7.32207031 10.79148437 -7 9.9375 C-6.37609479 8.28815383 -5.74991273 6.63966654 -5.12109375 4.9921875 C-4.84579834 4.26241699 -4.57050293 3.53264648 -4.28686523 2.78076172 C-3.1575639 0.10195391 -3.04090858 0.0741685 0 0 Z" fill="#E9C652" transform="translate(106.5625,58.9375)"/>
  </svg>

  <text x="108" y="78" font-family="system-ui, -apple-system, sans-serif" font-size="28" font-weight="600" fill="#ffffff">RunWhen Local</text>
  <text x="108" y="108" font-family="system-ui, -apple-system, sans-serif" font-size="16" font-weight="400" fill="#ffffff" opacity="0.6">Ready-to-use Skills, tailored for your stack.</text>
  <text x="108" y="138" font-family="system-ui, -apple-system, sans-serif" font-size="13" fill="#ffffff" opacity="0.45">Discover your cloud &amp; Kubernetes resources and render</text>
  <text x="108" y="155" font-family="system-ui, -apple-system, sans-serif" font-size="13" fill="#ffffff" opacity="0.45">AI-agent-ready Skills &#8212; standalone via MCP or Platform-connected.</text>
</svg>
